<?xml version="1.0" encoding="utf-8"?>
<!-- Generator: Adobe Illustrator 23.0.1, SVG Export Plug-In . SVG Version: 6.00 Build 0)  -->
<svg version="1.1" id="Layer_1" xmlns="http://www.w3.org/2000/svg" xmlns:xlink="http://www.w3.org/1999/xlink" x="0px" y="0px"
	 viewBox="0 0 1920 1080" style="enable-background:new 0 0 1920 1080;" xml:space="preserve">
<style type="text/css">
	
		.st0{opacity:0.31;fill:none;stroke:#FFFFFF;stroke-width:2.88;stroke-linecap:round;stroke-linejoin:round;stroke-miterlimit:3.864;stroke-dasharray:25,11;}
</style>
<polyline class="st0" points="2101.48,36.65 2077.91,33.06 2074.79,33.99 2065.42,32.11 2064.02,32.9 2060.12,33.06 2047,27.28 
	2041.07,22.45 2044.98,25.25 2039.36,19.32 2036.86,8.7 2035.92,2.62 2035.76,-9.87 2034.2,-13.14 2034.68,-19.55 2035.61,-21.58 
	2032.96,-30.63 2028.12,-38.9 2023.9,-44.21 2019.85,-47.96 2014.85,-50.77 2008.76,-52.17 2001.27,-51.55 1996.27,-48.89 
	1992.22,-45.92 1986.44,-39.06 1981.29,-29.38 1978.95,-26.89 1974.12,-22.67 1967.4,-19.08 1958.81,-17.04 1954.29,-16.89 
	1939.3,-24.54 1937.27,-25.01 1930.88,-24.54 1927.75,-22.51 1925.1,-19.23 1919.63,-10.5 1912.46,-4.4 1894.66,0.59 1894.81,1.21 
	1891.07,2.46 1886.54,5.43 1881.08,6.52 1870.31,6.52 1859.22,3.09 1843,-13.46 1836.75,-17.67 1828.78,-20.17 1818.95,-20.33 
	1812.08,-22.67 1807.71,-26.72 1796.47,-43.28 1781.17,-63.57 1774.31,-68.87 1769,-71.68 1758.23,-74.8 1757.92,-74.33 
	1757.29,-74.8 1752.46,-74.5 1749.17,-73.55 1738.56,-64.19 1723.88,-40.46 1720.61,-37.19 1715.31,-34.38 1700.32,-29.69 
	1699.07,-27.35 1697.83,-26.72 1692.2,-25.33 "/>
<path class="st0" d="M1692.2-25.33l-5.46,1.56l-4.21,2.66l-13.12,13.58l-2.81,2.34l-9.68,11.71l-7.18,4.05l-2.82,1.09l-14.67,8.9
	l-5.46,6.24l-1.88,5.46l0.47,4.22l2.5,3.27l5.77,11.24l4.84,6.08l8.9,6.87l5.15,5.62l14.98,20.92l2.97,6.71l8.42,9.21l4.68,9.37
	l3.29,9.37l0.31,4.37l-1.72,7.34l-1.88,4.68l-5.15,5.15l-2.18,3.12l-5.63,4.05l-6.24,8.9l-7.96,7.49l-4.53,5.78l-5.3,8.9l-1.88,6.24
	l0.62,3.44l1.56,4.52l3.6,4.85l2.34,4.22l2.65,2.03l6.24,1.56l26.85-0.31l11.56,2.19l4.22-0.16l9.37,3.28l6.55,4.52l1.72,0.63
	l5.62,5.15l1.71,3.12l0.63,5.31l-0.93,6.55l-2.04,5.94l-2.34,4.37l-2.34,3.27l-1.87,0.78l-3.12,2.97l-3.28,4.52l-9.37,6.41
	l-8.11,7.03l-3.6,4.99l-2.03,4.85v5.46l2.03,6.24l10.62,16.86l2.34,5.78l2.34,8.42l-0.63,6.56l-1.88,2.81l-4.84,1.56l-4.06,0.31
	l-9.83-1.09l-10.93-4.05l-8.12-2.34l-17.32-1.88l-9.83-2.49l-5.93,1.25l-6.87,3.75l-11.71,7.64l-5.31,2.03l-10.3,5.78l-8.59,2.66
	l-4.53,0.15l-13.27-2.81l-14.51-1.09l-5.15,0.31l-7.65,1.72l-5.93,3.59l-10.3,9.36l-16.24,9.05l-4.05,1.41l-5.31,3.12l-9.2,6.86
	l-0.63,1.56l-4.05,1.25l-5.46,3.44l-7.97,2.97l-3.9,2.49l-5.15,4.68l-12.64,7.8l-2.66,2.19l-1.1,0.15l-2.19,1.72l-3.12,4.21
	l0.16,0.94l-16.54,14.2l-6.41,7.34l-4.83,3.75l-7.34,4.37l-8.12,3.74l-14.83,5.16l-3.74-0.48l-10.93,1.26l-2.5-1.41l0.78-0.31
	l-0.15-0.31l-5-0.47l-6.71-1.88l-7.97-4.21l-7.02-6.09l-2.49-3.44l-2.03-1.56l-6.71-10.15l0.78-0.31l-0.16-0.47l-2.49-2.18
	l-0.47-1.26l0.78-0.15l-2.19-3.59l-4.53-5.31l-3.59-6.08l-11.39-6.72l-7.8-2.34l-10.3-1.71l-8.9-0.78l-3.12,0.31l-0.31,0.47
	l-11.55,0.47l-25.76,6.87l-1.08,0.62l-0.16,0.48l0.63,0.3l-1.72,0.78l-1.86-0.3l-10.62,3.27l-10.61,1.56l-7.02,0.15l-4.05-0.62
	l-21.7-5.15l-9.37-1.09l-4.99,0.93l-5.46,2.19l-1.88,1.71l-8.12,4.22l-2.19,2.03l-6.4,11.39l-5.46,6.72l-1.56,2.96l-3.27,15.61
	l-0.78,7.34l1.56,8.12l9.67,13.42l4.38,10.46l1.25,1.71l0.15,4.68l1.1,6.24l-0.78,4.06l0.15,8.74l-0.78,6.87l0.63,24.98l0.78,5.61
	l2.19,8.12l15.13,27.78l3.44,9.83l0.93,10.77v10.3l-1.56,6.41l-3.11,7.18l-4.22,6.56l-2.03,2.03l-7.97,5.93l-22.47,10.93l-8.43,7.34
	l-1.88,2.66l-2.96,6.56l-2.82,9.83 M1692.2-25.33l-4.83-227.12l-0.78-145.79l-0.47-162.63"/>
<polyline class="st0" points="1118.4,686.47 1117.78,689.28 1111.69,700.21 1106.85,707.08 1102.95,711.13 1086.87,719.25 
	1069.39,725.5 1054.56,728.15 1034.88,729.24 1023.81,732.52 1009.6,742.35 1006.17,745.47 999.61,757.33 994.93,764.05 
	995.08,765.77 994,770.92 986.49,788.55 984.31,795.42 979.95,812.91 979.63,816.96 980.25,829.14 979.63,834.45 976.2,843.35 
	974.48,852.71 966.98,873.62 963.24,879.09 962.78,881.11 952,894.7 948.25,903.28 940.61,909.99 891.59,940.28 886.13,942.94 
	880.66,942.16 872.86,937.01 871.61,937.01 866.61,931.23 867.09,928.11 860.37,921.7 856.95,921.23 853.51,919.21 843.98,919.21 
	840.08,921.4 834.15,923.42 822.13,925.76 815.27,928.57 810.27,932.94 805.58,942.94 802.78,955.11 802.93,962.13 801.68,975.25 
	798.71,982.11 791.39,994.13 776.08,1007.09 765.78,1016.92 752.98,1034.09 750.32,1038.93 740.81,1065.31 740.34,1089.19 
	744.71,1122.13 745.34,1134.46 744.08,1150.38 738,1165.06 735.03,1175.2 733.15,1190.5 732.69,1201.89 731.12,1212.04 
	730.19,1215.94 728.17,1221.09 723.32,1227.81 715.05,1236.23 704.44,1242.48 698.34,1243.72 682.42,1245.13 663.85,1249.19 
	652.61,1251.06 642.31,1253.87 634.35,1257.94 631.69,1260.89 629.51,1266.99 629.36,1271.04 631.22,1283.38 630.29,1289.93 
	627.02,1295.86 622.49,1297.58 617.8,1296.02 615.61,1294.15 608.29,1285.87 604.54,1280.72 597.83,1267.77 591.42,1253.4 
	591.73,1252.94 594.39,1255.43 593.14,1253.57 590.02,1249.97 587.36,1248.1 574.56,1240.14 563.49,1235.14 554.43,1233.11 
	546,1232.33 533.83,1232.96 510.25,1239.67 505.88,1239.52 499.8,1238.11 489.02,1232.33 475.13,1226.4 462.34,1219.53 
	457.66,1213.45 452.34,1209.7 450.15,1207.35 450.93,1206.74 435.64,1199.4 425.34,1191.59 420.34,1186.6 417.22,1181.76 
	414.25,1175.04 410.04,1156.62 409.42,1139.77 411.44,1125.09 413.95,1114.64 415.98,1101.06 415.19,1094.97 412.85,1090.91 
	405.67,1079.83 404.42,1078.58 400.68,1072.03 399.42,1070.93 388.34,1062.97 373.2,1055.16 356.97,1040.5 351.04,1034.25 
	346.04,1030.19 339.02,1026.76 335.12,1026.45 331.83,1026.91 325.75,1030.03 322.17,1033.94 320.44,1037.99 319.2,1043.46 
	319.04,1047.36 319.82,1055.94 321.54,1060.62 325.44,1064.84 330.75,1067.96 334.18,1069.06 352.91,1071.25 360.56,1073.74 
	366.49,1076.55 369.3,1080.14 370.54,1085.45 368.83,1093.87 367.42,1096.53 364.46,1101.06 362.27,1102.93 358.37,1105.11 
	355.73,1105.89 350.57,1106.52 342.92,1106.21 322.32,1103.86 318.26,1105.43 311.71,1110.74 307.8,1118.23 305.46,1127.28 
	303.74,1129.94 301.56,1131.65 298.9,1132.59 295.78,1132.28 285.32,1120.57 285,1119.63 283.92,1119.32 273,1109.96 270.18,1108.7 
	261.75,1107.62 255.51,1108.08 248.95,1111.21 243.49,1117.29 241,1122.75 240.37,1125.87 240.83,1131.5 243.02,1137.74 
	247.54,1143.2 254.73,1147.42 263.63,1150.07 269.87,1153.97 272.05,1157.09 273.46,1163.18 272.05,1173.18 271.12,1176.3 
	266.27,1183.94 253.79,1195.33 247.24,1198.15 240.68,1199.86 228.51,1201.11 210.86,1200.96 200.41,1202.52 195.41,1204.55 
	193.54,1206.11 191.35,1209.54 188.54,1221.4 189.17,1231.86 188.07,1244.98 187.92,1254.96 188.23,1263.71 189.01,1267.92 
	188.54,1270.74 188.7,1289.15 189.95,1296.02 193.07,1304.76 194.78,1307.89 200.25,1313.35 203.05,1318.35 205.25,1325.21 
	205.4,1332.7 203.68,1335.2 200.71,1337.69 190.1,1343.79 180.9,1347.38 175.12,1347.53 168.1,1346.59 163.41,1344.72 
	152.02,1341.76 146.4,1342.06 139.84,1340.67 133.75,1341.6 131.88,1343.01 125.17,1350.81 123.14,1354.55 121.89,1359.4 
	121.73,1365.64 123.45,1384.52 122.36,1395.77 124.39,1400.91 123.61,1404.04 117.83,1414.5 112.37,1418.55 91.92,1430.72 
	87.54,1432.29 78.81,1433.69 "/>
<polyline class="st0" points="78.81,1433.69 74.75,1433.54 69.6,1430.72 66.48,1424.33 65.7,1416.21 66.79,1409.5 69.44,1401.38 
	77.88,1383.11 81.46,1373.13 82.09,1369.23 81.93,1364.55 80.68,1359.7 79.27,1357.36 76.63,1355.18 66.95,1352.37 55.86,1350.35 
	48.83,1350.18 44.31,1352.37 41.34,1355.96 34,1360.96 24.64,1369.23 17.15,1374.06 15.12,1375.16 11.69,1375.79 3.42,1373.91 
	0.45,1371.26 -10.17,1358.62 -14.22,1352.84 -19.22,1343.16 -27.02,1330.52 -31.86,1321.15 -34.98,1313.35 -38.1,1309.76 
	-39.51,1306.79 -40.44,1303.35 -40.29,1302.89 -39.36,1304.14 -38.88,1303.52 -40.44,1299.45 -42.78,1296.8 -47.17,1289.31 
	-48.1,1283.38 -49.97,1276.98 -53.25,1268.23 -54.49,1266.67 -54.03,1266.2 -61.68,1262.45 -67.14,1258.09 -70.88,1255.91 
	-75.1,1254.81 -77.6,1254.81 -81.03,1255.91 -90.24,1261.06 -105.85,1266.83 -112.73,1271.35 -117.71,1276.35 -121.15,1281.35 
	-126.46,1286.96 -130.36,1289.31 -135.66,1295.23 -139.56,1302.11 -146.9,1310.06 -150.65,1315.22 -154.87,1318.81 -158.93,1320.84 
	-165.8,1326.15 -173.44,1328.02 -177.81,1327.86 -188.58,1329.74 -206.69,1330.98 -209.19,1330.52 -208.41,1329.74 -216.37,1332.23 
	-241.34,1342.38 -247.74,1345.5 -268.51,1360.33 -276.46,1369.69 -279.74,1377.03 -279.74,1381.87 -278.18,1385.93 -277.24,1393.42 
	-277.87,1400.91 -282.86,1413.55 -285.2,1421.52 -284.73,1422.14 -290.51,1450.24 -293.63,1457.26 -297.38,1469.44 -300.66,1476.77 
	-303.93,1481.3 -308.15,1485.67 -320.17,1495.2 -328.6,1498.79 -340.46,1501.28 -345.93,1500.81 -353.42,1498.32 -355.29,1496.6 
	-358.56,1490.2 -362.47,1473.03 -366.37,1462.89 -377.77,1443.21 -381.68,1438.22 -386.36,1434.79 -386.2,1434.01 -386.98,1434.47 
	-392.44,1433.23 -395.25,1433.85 -398.37,1433.38 -398.22,1433.85 -401.65,1434.47 -403.83,1434.32 -412.58,1432.29 
	-422.56,1431.04 -435.83,1426.2 -468.3,1404.67 -476.42,1397.16 -476.88,1395.77 -481.88,1389.99 -486.41,1386.08 -489.22,1384.68 
	-500,1376.57 -511.07,1368.76 -519.03,1365.16 -526.53,1360.8 -537.14,1357.84 -539.32,1357.99 -540.42,1358.62 -549,1354.55 
	-556.19,1348.62 -557.44,1346.59 -561.02,1343.79 -563.99,1343.32 -565.71,1341.76 -573.51,1333.01 -573.66,1330.67 
	-580.69,1326.62 -595.36,1321.31 -597.71,1321.15 -599.73,1320.37 -600.83,1318.96 -610.98,1316.47 -614.88,1316.94 
	-615.19,1316.01 -632.36,1316.62 -641.41,1318.65 -644.07,1319.74 -644.38,1320.53 -655.61,1326.62 -661.71,1332.55 
	-666.07,1335.35 -676.22,1343.62 -679.97,1347.69 -689.65,1356.11 -692.93,1358.14 -695.9,1359.08 -699.02,1359.23 -706.82,1352.06 
	-716.97,1347.84 -734.29,1337.69 -743.34,1329.27 -750.21,1319.13 -753.17,1312.25 -755.2,1303.82 -754.27,1294.93 -755.51,1289.15 
	-758.32,1284.94 -761.14,1282.75 -765.51,1280.41 -768.95,1279.63 -775.19,1281.04 -779.4,1283.53 -781.58,1287.74 -782.99,1291.96 
	-782.99,1296.18 -781.43,1298.99 -783.93,1309.6 -788.14,1315.22 -801.56,1327.86 -804.53,1335.52 -804.07,1341.45 -802.19,1347.53 
	-799.54,1353.62 -796.88,1357.99 -791.58,1363.3 -786.42,1367.35 -780.49,1370.94 -774.25,1376.57 "/>
</svg>
