<?xml version="1.0" encoding="utf-8"?>
<!-- Generator: Adobe Illustrator 23.0.1, SVG Export Plug-In . SVG Version: 6.00 Build 0)  -->
<svg version="1.1" id="Layer_1" xmlns="http://www.w3.org/2000/svg" xmlns:xlink="http://www.w3.org/1999/xlink" x="0px" y="0px"
	 viewBox="0 0 1920 1080" style="enable-background:new 0 0 1920 1080;" xml:space="preserve">
<style type="text/css">
	
		.st0{opacity:0.31;fill:none;stroke:#FFFFE5;stroke-width:2.88;stroke-linecap:round;stroke-linejoin:round;stroke-miterlimit:3.864;stroke-dasharray:25,15,2,15;}
</style>
<path class="st0" d="M2101.48-224.26c-11.89-1.81-24.38-0.13-34.03-8c0.71,0.55,1.47,1.05,2.2,1.58
	c-6.32-6.67-5.45-17.38-5.54-25.81c-0.08-7.76-7.5-17.69-15.83-17.72c-10.44-0.04-11.73,11.91-18.95,16.75
	c-3.6,2.42-8.3,3.69-12.32,2.26c-4.39-1.56-8.19-5.83-12.95-2.67c-3.66,2.42-4.39,7.5-8.4,9.92c-3.41,2.06-8.47,2.54-11.67,4.09
	c-4.2,2.04-7.66,3.31-12.58,2.64c-5.75-0.78-8.11-3.66-11.96-7.59c-3.36-3.43-6.61-6.65-11.6-7.45c-4.87-0.78-8.4,0.33-12-3.88
	c-6.21-7.26-9.9-17.6-18.05-23.06c-9.67-6.49-17.29-3.51-23.15,5.96c-3,4.85-5.26,10.56-10.74,12.97c-2.5,1.1-5.44,1.28-7.89,2.46
	c-2.04,0.99-2.3,2.08-5.13,2.63"/>
<path class="st0" d="M1870.92-259.17c-0.89-41.86-1.89-83.71-2.67-125.57c-0.63-33.75-0.44-67.53-0.54-101.29
	c-0.07-24.95-0.14-49.89-0.21-74.84"/>
<path class="st0" d="M1870.92-259.17c-8.14,1.81-13.15,10.91-18.69,16.52c-5.08,5.13-17.89,6.99-19.04,15.45
	c-0.44,3.2,2.89,8.09,4.62,10.76c2.38,3.69,5.9,5.63,8.9,8.68c6.03,6.13,9.35,14.31,14.8,20.69c4.86,5.69,9.12,15,4.42,22.06
	c-2.06,3.09-5.46,5.09-7.84,7.79c-2.83,3.21-5.92,6.51-8.58,9.87c-4.96,6.28-7.81,15.73,0.74,20.89c3.65,2.2,10.59,0.8,14.5,0.75
	c3.88-0.05,7.46,0.52,11.27,1.16c7.27,1.23,17.03,5.31,15.91,14.18c-1.07,8.53-8.01,13.12-14.24,17.98
	c-9.02,7.04-8.31,12.75-2.61,21.8c3.43,5.45,9.31,17.41-1.24,17.88c-4.47,0.2-8.2-1.63-12.33-2.98c-4.46-1.45-8.86-1.45-13.45-2.22
	c-4.27-0.72-6.66-1.89-10.78-0.02c-3.89,1.77-7.32,4.52-11.11,6.44c-3.58,1.81-7.19,4.38-11.26,5.02
	c-3.65,0.57-7.07-0.89-10.67-1.41c-4.17-0.6-8.82-1-12.95,0.07c-4.66,1.2-6.86,4.27-10.57,7.12c-3.04,2.34-6.73,4.17-10.18,5.87
	c-3.87,1.91-6.85,4.46-10.34,6.76c-3,1.97-7.02,3.1-10.31,4.93c-3.83,2.13-7.25,5.36-11.04,7.7c-2.74,1.69-4.01,3.37-5.93,5.61
	c-2.67,3.11-6.61,5.46-9.56,8.44c-5.98,6.04-13.07,11.36-21.79,12.95c-2.73,0.5-8.78,1.85-11.01,0.11c0.15-0.06,0.29-0.12,0.44-0.18
	c-7.61-1.95-13.29-4.4-18.26-11.01c-3.95-5.25-4.78-10.73-10.01-15.8c-5.54-5.37-15.97-6.58-23.25-6.25
	c-3.61,0.16-21.37,2.26-21.54,5.18c-5.64,1.13-11.49,3.46-17.53,3.07c-6.38-0.41-12.4-3.54-18.83-3.7
	c-13.04-0.33-21.41,14.65-23.33,25.83c-0.49,2.86-0.94,5.75,0.05,8.58c1.13,3.25,3.96,5.59,5.65,8.6
	c3.27,5.85,3.79,11.24,3.47,17.76c-0.32,6.7-0.61,13.5-0.05,20.22c0.56,6.74,3.77,11.75,6.94,17.58
	c5.66,10.39,9.55,24.61,0.72,34.74c-4.78,5.48-12.25,6.78-18.13,10.56c-5.91,3.8-7.11,8.73-9.22,14.94
	c-4.4,12.92-15.17,18.76-27.89,22.04c-12.97,3.34-27.74-0.07-36.29,12.94c-1.57,2.39-3.99,5.75-5.1,8.34
	c-1.01,2.36-1.29,5.42-2.39,8c-2.66,6.26-5.3,12.9-6.27,19.69c-0.4,2.79,0.08,5.5,0.06,8.3c-0.03,3.41-1.21,5.64-2.16,8.89
	c-1.74,5.97-2.75,12.06-5.59,17.72c-1.49,2.97-3.4,5.45-5.49,8.08c-2.05,2.59-2.85,5.61-4.74,8.14c-3.43,4.6-10.51,7.61-15.17,10.49
	c-5.69,3.51-11.9,8.92-18.28,11.09c-3.6,1.22-5.62-0.16-8.69-2.38c-0.87-0.63-1.08-0.36-2.02-1.36c-1.78-1.9-0.83-2.57-1.84-4.14
	c-3.9-6.06-11-4.94-16.61-2.94c-6.42,2.29-12.51,1.5-16.16,8.15c-3.42,6.24-2.52,12.57-3.58,19.28c-0.97,6.19-4.52,11.7-9.27,15.72
	c-11.21,9.49-18.5,18.65-23.49,32.49c-4.46,12.36-0.5,25.3,0.5,37.96c0.57,7.18,0.08,13.55-2.63,20.19
	c-2.34,5.75-3.47,11.4-3.95,17.6c-0.99,12.67-4.17,26.73-19.06,29.52c-6.55,1.23-13.17,1.86-19.76,3.14
	c-5.21,1.01-13.27,1.28-17.22,5.41c-5,5.23,0.07,11.95-2.09,17.94c-3.22,8.93-10.83-0.5-13.62-4.59c-2.58-3.79-7.73-12.12-7.91-16.6
	c0.49,0.48,1.02,0.92,1.5,1.4c-3.84-5.73-12.24-9.84-18.73-11.73c-8.05-2.34-15.51-0.9-23.34,1.33c-8.78,2.5-13.2-0.87-21.2-4.29
	c-3.47-1.48-8.13-3.03-11-5.48c-1.53-1.3-6.58-6.15-6.55-7.27c-12.61-6.05-19.96-11.84-22.54-26.08c-1.08-5.93-0.96-11.84,0-17.78
	c0.86-5.36,3.34-11.37,2.7-16.81c-0.56-4.78-5.27-11.55-8.47-15.23c-4-4.59-10.45-6.1-15.28-9.4c-6.84-4.67-17.6-22.55-27.24-13.91
	c-3.76,3.37-4.36,10.35-2.77,14.94c2.41,6.98,9.57,6.71,15.65,7.62c5.06,0.76,12.52,2.11,12.64,8.5c0.1,5.86-4.2,10.69-9.77,11.52
	c-5.77,0.86-12.55-2.57-17.96-1.09c-6.88,1.89-6.07,8.08-8.9,12.96c-4.22,7.26-8.59-1.31-11.83-4.4c-4.24-4.03-8.38-7.3-14.55-6.55
	c-6.16,0.75-11.07,6.48-10.07,12.83c1.17,7.38,6.92,8.36,12.7,10.9c13.18,5.79,1.13,22.33-7.2,26.35
	c-5.09,2.46-11.16,2.47-16.69,2.42c-5.19-0.04-13.25-0.85-16.32,4.29c-2.92,4.89-1.41,11.4-1.86,16.77
	c-0.51,6.09-0.22,12.19-0.05,18.2c0.18,6.2-0.41,12.06,2.1,17.89c2.24,5.2,7.17,8.04,7.34,14.28c0.16,5.76-7.75,9.45-12.88,10.67
	c-5.86,1.39-10.49-1.73-16.13-2.57c-6.45-0.96-11.18-1.68-15.38,3.97c-3.9,5.25-2.35,11.01-1.97,17.11
	c0.34,5.51,1.3,12.02-1.29,16.7"/>
</svg>
